PathFileType	4	(X/Y/Z)	/Users/itak/Documents/Research/Walk-IL/dataset/trc/00521_00183.trc
DataRate	CameraRate	NumFrames	NumMarkers	Units	OrigDataRate	OrigDataStartFrame	OrigNumFrames
100.000000	100.000000	4	53	mm	100.000000	434	497
Frame#	Time	RPSI			LPSI			L3			STRN			T10			C7			CLAV			RBAK			LBAK			LSHO			LUPA			LAEL			LAOL			LWTS			LWPS			LFRA			LIFD			LHPS			LHTS			RSHO			RUPA			RAEL			RAOL			RWTS			RWPS			RFRA			RIFD			RHTS			RHPS			RBHD			LFHD			RFHD			LBHD			LHIP			RHIP			RASI			LASI			LKNE			LTHI			LANK			LTIP			LTOE			LMT1			LMT5			LHEE			RKNE			RTHI			RANK			RTIP			RTOE			RMT1			RMT5			RHEE			
		X1	Y1	Z1	X2	Y2	Z2	X3	Y3	Z3	X4	Y4	Z4	X5	Y5	Z5	X6	Y6	Z6	X7	Y7	Z7	X8	Y8	Z8	X9	Y9	Z9	X10	Y10	Z10	X11	Y11	Z11	X12	Y12	Z12	X13	Y13	Z13	X14	Y14	Z14	X15	Y15	Z15	X16	Y16	Z16	X17	Y17	Z17	X18	Y18	Z18	X19	Y19	Z19	X20	Y20	Z20	X21	Y21	Z21	X22	Y22	Z22	X23	Y23	Z23	X24	Y24	Z24	X25	Y25	Z25	X26	Y26	Z26	X27	Y27	Z27	X28	Y28	Z28	X29	Y29	Z29	X30	Y30	Z30	X31	Y31	Z31	X32	Y32	Z32	X33	Y33	Z33	X34	Y34	Z34	X35	Y35	Z35	X36	Y36	Z36	X37	Y37	Z37	X38	Y38	Z38	X39	Y39	Z39	X40	Y40	Z40	X41	Y41	Z41	X42	Y42	Z42	X43	Y43	Z43	X44	Y44	Z44	X45	Y45	Z45	X46	Y46	Z46	X47	Y47	Z47	X48	Y48	Z48	X49	Y49	Z49	X50	Y50	Z50	X51	Y51	Z51	X52	Y52	Z52	X53	Y53	Z53	

435	4.34	400.9728698730469	960.4744262695312	829.6414184570312	524.6101684570312	962.7008056640625	841.359375	468.0405883789062	1024.56103515625	822.049072265625	466.09033203125	1206.051635742188	1036.536865234375	466.6466979980469	1130.03759765625	804.576171875	468.7035827636719	1362.064575195312	837.6875610351562	469.2476196289062	1298.70166015625	995.0277099609375	380.2250061035156	1239.7080078125	796.6141967773438	553.3958129882812	1303.35888671875	815.58935546875	628.9579467773438	1357.042236328125	903.5350952148438	689.7848510742188	1231.250366210938	897.3030395507812	725.8167114257812	1024.756591796875	923.2855224609375	649.6144409179688	1006.819091796875	861.8925170898438	707.9443359375	846.7658081054688	1031.992065429688	742.0169067382812	804.6577758789062	954.663818359375	735.1384887695312	942.588623046875	947.850341796875	713.7416381835938	690.9411010742188	1053.048828125	745.0682983398438	754.805908203125	985.3673095703125	734.375732421875	772.548583984375	1047.08056640625	320.74072265625	1365.240234375	890.8168334960938	263.5927429199219	1298.645263671875	875.6708984375	213.1451873779297	1033.486572265625	884.4844970703125	256.0372924804688	1012.165771484375	840.214111328125	222.2649383544922	835.7351684570312	996.8004760742188	188.5189208984375	807.688720703125	917.781494140625	205.4140014648438	978.8447265625	888.51806640625	211.2411346435547	677.0845947265625	1007.566711425781	192.7407989501953	746.1275634765625	1012.432373046875	182.2444305419922	739.3397827148438	943.6478271484375	378.0876159667969	1517.932495117188	878.2381591796875	524.6572875976562	1592.9658203125	993.1306762695312	397.7235412597656	1584.859497070312	996.7903442382812	537.841796875	1522.459594726562	858.8463134765625	644.1962280273438	891.0632934570312	963.6369018554688	265.6716003417969	868.8231811523438	923.9698486328125	323.2560729980469	916.4912109375	1029.638061523438	565.0596923828125	929.040771484375	1046.7578125	592.3553466796875	473.971435546875	967.5621337890625	618.2125854492188	629.6652221679688	988.346923828125	580.9035034179688	47.5020866394043	854.5576782226562	593.7473754882812	325.5334777832031	929.8361206054688	489.8543701171875	33.53228759765625	1044.052368164062	470.3673095703125	42.29107284545898	960.5651245117188	572.6077270507812	38.87491226196289	963.9668579101562	525.9632568359375	45.97150421142578	801.667236328125	292.4295349121094	480.5602111816406	934.2283325195312	259.4563903808594	740.0428466796875	952.63427734375	313.3027038574219	47.38387298583984	858.45556640625	308.7843017578125	335.9823913574219	930.91650390625	366.0787963867188	38.49228286743164	1057.047607421875	398.388916015625	43.30518341064453	987.107177734375	303.6907653808594	43.79602432250977	972.2813720703125	358.553955078125	39.05794906616211	802.4728393554688	
436	4.350000000000001	400.4623107910156	960.3268432617188	830.8699951171875	524.1729125976562	962.7134399414062	842.47021484375	467.6128234863281	1024.315185546875	823.057373046875	465.5997314453125	1205.90625	1037.516235351562	466.3094482421875	1129.8173828125	805.3311767578125	468.3551940917969	1361.874389648438	838.62548828125	468.8003234863281	1298.520874023438	995.9598999023438	379.8702392578125	1239.539306640625	797.5455932617188	553.0487060546875	1303.104858398438	816.5814819335938	628.5668334960938	1356.8173828125	904.5158081054688	689.3305053710938	1230.993896484375	898.1633911132812	725.1370239257812	1024.35107421875	923.2803344726562	648.7349853515625	1006.786010742188	862.0346069335938	707.1624755859375	844.8739013671875	1030.158325195312	740.9885864257812	803.6503295898438	952.2647705078125	734.4130249023438	941.703857421875	947.1328735351562	712.3570556640625	688.7644653320312	1049.191040039062	743.9042358398438	753.4132080078125	982.3143920898438	733.4678955078125	770.4634399414062	1044.292602539062	320.3902282714844	1365.136596679688	891.6090698242188	263.1765747070312	1298.499755859375	876.5584106445312	212.5888519287109	1033.364013671875	886.0488891601562	255.3912658691406	1011.904357910156	841.7791137695312	221.6364898681641	836.0360717773438	999.0690307617188	187.8845977783203	807.7081909179688	920.1548461914062	204.8057861328125	978.7577514648438	890.253662109375	210.3326263427734	677.572509765625	1010.473266601562	192.0586700439453	746.5169067382812	1015.039978027344	181.5524139404297	739.4852905273438	946.2620239257812	378.0448303222656	1517.963134765625	879.082275390625	524.5491333007812	1592.6982421875	994.1925659179688	397.6069641113281	1584.775146484375	997.7738037109375	537.7384033203125	1522.29345703125	859.838134765625	643.6500244140625	890.9382934570312	964.81689453125	265.1504821777344	868.7081298828125	924.8630981445312	322.6781311035156	916.285888671875	1030.60888671875	564.4798583984375	928.81494140625	1047.990600585938	591.95263671875	473.798095703125	968.3646850585938	617.7540283203125	629.521484375	989.3591918945312	580.8259887695312	47.53515243530273	854.56787109375	593.4423828125	325.4737548828125	930.3678588867188	489.8444519042969	33.52192306518555	1044.050903320312	470.2874145507812	42.24732208251953	960.5663452148438	572.5455322265625	38.88884735107422	963.96240234375	525.901611328125	45.98179626464844	801.6694946289062	291.8864135742188	480.469970703125	933.9684448242188	259.0103149414062	740.03955078125	953.5450439453125	313.2479248046875	47.33717727661133	858.441650390625	308.2643432617188	335.9910278320312	930.3961181640625	366.0340881347656	38.4858512878418	1057.042602539062	398.3122253417969	43.35196685791016	987.1146850585938	303.612548828125	43.75871276855469	972.2813720703125	358.549560546875	38.96954345703125	802.455078125	
437	4.36	399.9237060546875	960.0430297851562	832.1439208984375	523.765380859375	962.7411499023438	843.5261840820312	467.2142333984375	1024.091796875	824.017822265625	465.1410217285156	1205.775634765625	1038.470947265625	465.9733276367188	1129.618041992188	806.0806274414062	468.033447265625	1361.724487304688	839.548583984375	468.3575134277344	1298.363891601562	996.8630981445312	379.5417785644531	1239.398071289062	798.4264526367188	552.7218017578125	1302.874145507812	817.541748046875	628.1720581054688	1356.616821289062	905.4796142578125	688.864501953125	1230.760375976562	898.9746704101562	724.4290161132812	1023.965026855469	923.2200927734375	647.8016357421875	1006.770446777344	862.1468505859375	706.37939453125	843.1576538085938	1028.406372070312	739.8947143554688	802.7439575195312	949.9727172851562	733.6241455078125	940.9025268554688	946.4026489257812	711.1356811523438	686.849365234375	1045.6318359375	742.7500610351562	752.1578369140625	979.4215698242188	732.6336059570312	768.6107177734375	1041.644897460938	320.0546569824219	1365.032348632812	892.3748779296875	262.7891540527344	1298.354248046875	877.4075927734375	212.0401306152344	1033.25341796875	887.566650390625	254.7719421386719	1011.658081054688	843.2802124023438	221.0204467773438	836.305419921875	1001.216369628906	187.3264617919922	807.7451171875	922.3502807617188	204.2026824951172	978.677978515625	891.9239501953125	209.4617156982422	678.0064697265625	1013.1728515625	191.3838348388672	746.872314453125	1017.487731933594	180.8545837402344	739.6273803710938	948.713623046875	378.0151062011719	1518.007690429688	879.8963623046875	524.439453125	1592.450561523438	995.210693359375	397.5047607421875	1584.686401367188	998.7396240234375	537.6160278320312	1522.144165039062	860.788818359375	643.1376342773438	890.8118286132812	965.865234375	264.6512756347656	868.6181640625	925.705322265625	322.1225891113281	916.104736328125	1031.529907226562	563.9285888671875	928.5996704101562	1049.145874023438	591.556396484375	473.6349182128906	969.1289672851562	617.3147583007812	629.3825073242188	990.30029296875	580.7565307617188	47.56495666503906	854.580810546875	593.1375732421875	325.4051513671875	930.881591796875	489.8334655761719	33.51322174072266	1044.052856445312	470.2169494628906	42.20903396606445	960.5682373046875	572.480224609375	38.90194320678711	963.9594116210938	525.8375244140625	45.98828125	801.671142578125	291.3957824707031	480.3787231445312	933.7569580078125	258.5980224609375	739.99853515625	954.4561157226562	313.1961669921875	47.29540252685547	858.4345092773438	307.7765502929688	335.9996337890625	929.9207763671875	365.9915161132812	38.48014068603516	1057.03857421875	398.2408447265625	43.39385986328125	987.1231079101562	303.5362854003906	43.72457504272461	972.2826538085938	358.5518188476562	38.90576171875	802.4428100585938	
438	4.37	399.3536376953125	959.6320190429688	833.442626953125	523.3929443359375	962.7789916992188	844.5293579101562	466.8320922851562	1023.886352539062	824.921875	464.7098083496094	1205.659301757812	1039.401123046875	465.6317443847656	1129.443115234375	806.8267211914062	467.739013671875	1361.605346679688	840.4561157226562	467.9193420410156	1298.2314453125	997.7395629882812	379.23291015625	1239.278564453125	799.2655639648438	552.4078369140625	1302.664428710938	818.4688110351562	627.7805786132812	1356.439331054688	906.4238891601562	688.3909912109375	1230.548217773438	899.7318725585938	723.6892700195312	1023.59716796875	923.1068115234375	646.810791015625	1006.766235351562	862.2286376953125	705.5996704101562	841.6172485351562	1026.754272460938	738.7359008789062	801.9356079101562	947.8048095703125	732.7816162109375	940.1884155273438	945.6634521484375	710.0464477539062	685.1754760742188	1042.383666992188	741.6080932617188	751.0338134765625	976.7077026367188	731.8576049804688	766.9701538085938	1039.160888671875	319.7338562011719	1364.926147460938	893.1292114257812	262.4299621582031	1298.215942382812	878.224853515625	211.4928131103516	1033.158325195312	889.0341796875	254.1712799072266	1011.432312011719	844.71630859375	220.4196472167969	836.5543823242188	1003.239929199219	186.8272552490234	807.7999877929688	924.3770141601562	203.5943450927734	978.608154296875	893.5255737304688	208.6448822021484	678.3878784179688	1015.678039550781	190.7213592529297	747.2037963867188	1019.783020019531	180.1459808349609	739.7716064453125	951.016845703125	377.9831237792969	1518.061401367188	880.6828002929688	524.323486328125	1592.22509765625	996.1856079101562	397.4029235839844	1584.590576171875	999.672607421875	537.47802734375	1522.006591796875	861.7021484375	642.6316528320312	890.652587890625	966.8026733398438	264.1792602539062	868.5418090820312	926.5060424804688	321.5942077636719	915.9373779296875	1032.409912109375	563.4075927734375	928.3978881835938	1050.225219726562	591.1654052734375	473.4857177734375	969.8460083007812	616.883544921875	629.2445678710938	991.1702880859375	580.6961059570312	47.59317779541016	854.5953369140625	592.83544921875	325.3279724121094	931.3682861328125	489.8212890625	33.50588226318359	1044.057861328125	470.1583251953125	42.17751693725586	960.5706176757812	572.4141845703125	38.91551208496094	963.9578247070312	525.7742919921875	45.99148941040039	801.6712646484375	290.9553833007812	480.2888488769531	933.5783081054688	258.2247314453125	739.9232788085938	955.3545532226562	313.1489868164062	47.25774765014648	858.4337768554688	307.3128051757812	336.0072021484375	929.490478515625	365.9530944824219	38.47539901733398	1057.035766601562	398.1764221191406	43.42917633056641	987.132080078125	303.4659423828125	43.69248580932617	972.284423828125	358.5534057617188	38.86572647094727	802.4365844726562	
